<svg xmlns="http://www.w3.org/2000/svg" width="1200" height="800" viewBox="0 0 1200 800"><rect width="1200" height="800" fill="#f7efe9"/><text x="70" y="70" font-size="30" font-family="Georgia" fill="#8b6660">Tokyo Basecamp</text><rect x="250" y="120" width="700" height="140" rx="36" fill="#ead9d3"/><text x="600" y="180" text-anchor="middle" font-size="30" font-weight="bold" font-family="Arial" fill="#493c38">Daiwa Roynet Hotel Ginza PREMIER</text><text x="600" y="220" text-anchor="middle" font-size="20" font-family="Arial" fill="#74645e">Offline Orientation Card · Not To Scale</text><rect x="80" y="330" width="500" height="110" rx="28" fill="#fffaf6" stroke="#dbc9c2"/><text x="108" y="378" font-size="24" font-family="Arial" fill="#4f423d">Natural Lawson · inside hotel · 24h</text><rect x="620" y="330" width="500" height="110" rx="28" fill="#fffaf6" stroke="#dbc9c2"/><text x="648" y="378" font-size="24" font-family="Arial" fill="#4f423d">Ginza-itchome Station · ~1 min</text><rect x="80" y="510" width="500" height="110" rx="28" fill="#fffaf6" stroke="#dbc9c2"/><text x="108" y="558" font-size="24" font-family="Arial" fill="#4f423d">Ginza shopping streets · walk west</text><rect x="620" y="510" width="500" height="110" rx="28" fill="#fffaf6" stroke="#dbc9c2"/><text x="648" y="558" font-size="24" font-family="Arial" fill="#4f423d">Tokyo Station · walk / metro</text><path d="M600 260 L330 330 M600 260 L870 330 M330 440 L330 510 M870 440 L870 510" stroke="#c5aaa1" stroke-width="5" stroke-dasharray="12 12" fill="none"/><text x="600" y="750" text-anchor="middle" font-size="18" font-family="Arial" fill="#8a7770">Use the live Maps button for turn-by-turn navigation when online.</text></svg>